# This file uses centimeters as units for non-parametric coordinates.

mtllib Room.mtl
g default
v -70.849602 -1.032314 70.849602
v 70.849602 -1.032314 70.849602
v -70.849602 1.032314 70.849602
v 70.849602 1.032314 70.849602
v -70.849602 1.032314 -70.849602
v 70.849602 1.032314 -70.849602
v -70.849602 -1.032314 -70.849602
v 70.849602 -1.032314 -70.849602
v 71.354622 1.002590 70.167229
v 71.354622 1.002590 -69.827858
v 71.354622 72.101913 70.167229
v 71.354622 72.101913 -69.827858
v 70.213264 72.101913 70.167229
v 70.213264 72.101913 -69.827858
v 70.213264 1.002590 70.167229
v 70.213264 1.002590 -69.827858
v -69.997543 1.002590 71.070915
v 69.997543 1.002590 71.070915
v -69.997543 72.101913 71.070915
v 69.997543 72.101913 71.070915
v -69.997543 72.101913 69.929558
v 69.997543 72.101913 69.929558
v -69.997543 1.002590 69.929558
v 69.997543 1.002590 69.929558
v 22.242437 72.101913 69.929558
v 22.242437 1.002590 69.929558
v 22.242437 1.002590 71.070915
v 22.242437 72.101913 71.070915
v -17.036692 72.101913 69.929558
v -17.036692 1.002590 69.929558
v -17.036692 1.002590 71.070915
v -17.036692 72.101913 71.070915
v 22.242437 65.500778 69.929558
v -17.036692 65.500778 69.929558
v -69.997543 65.500778 69.929558
v -69.997543 65.500778 71.070915
v -17.036692 65.500778 71.070915
v 22.242437 65.500778 71.070915
v 69.997543 65.500778 71.070915
v 69.997543 65.500778 69.929558
v 22.242437 28.169788 69.929558
v -17.036694 28.169788 69.929558
v -69.997543 28.169788 69.929558
v -69.997543 28.169788 71.070915
v -17.036694 28.169788 71.070915
v 22.242437 28.169788 71.070915
v 69.997543 28.169788 71.070915
v 69.997543 28.169788 69.929558
v -69.997543 1.002590 -69.725174
v 69.997543 1.002590 -69.725174
v -69.997543 72.101913 -69.725174
v 69.997543 72.101913 -69.725174
v -69.997543 72.101913 -70.866531
v 69.997543 72.101913 -70.866531
v -69.997543 1.002590 -70.866531
v 69.997543 1.002590 -70.866531
vt 0.375000 0.000000
vt 0.625000 0.000000
vt 0.375000 0.250000
vt 0.625000 0.250000
vt 0.375000 0.500000
vt 0.625000 0.500000
vt 0.375000 0.750000
vt 0.625000 0.750000
vt 0.375000 1.000000
vt 0.625000 1.000000
vt 0.875000 0.000000
vt 0.875000 0.250000
vt 0.125000 0.000000
vt 0.125000 0.250000
vt 0.375000 0.000000
vt 0.625000 0.000000
vt 0.625000 0.250000
vt 0.375000 0.250000
vt 0.625000 0.500000
vt 0.375000 0.500000
vt 0.625000 0.750000
vt 0.375000 0.750000
vt 0.625000 1.000000
vt 0.375000 1.000000
vt 0.875000 0.000000
vt 0.875000 0.250000
vt 0.125000 0.000000
vt 0.125000 0.250000
vt 0.375000 0.226789
vt 0.469576 0.226789
vt 0.469576 0.250000
vt 0.375000 0.250000
vt 0.469576 0.500000
vt 0.375000 0.500000
vt 0.469576 0.523211
vt 0.375000 0.523211
vt 0.375000 0.750000
vt 0.469576 0.750000
vt 0.469576 1.000000
vt 0.375000 1.000000
vt 0.625000 0.226789
vt 0.875000 0.226789
vt 0.875000 0.250000
vt 0.625000 0.250000
vt 0.125000 0.226789
vt 0.125000 0.250000
vt 0.539720 0.500000
vt 0.625000 0.500000
vt 0.625000 0.523211
vt 0.539720 0.523211
vt 0.539720 1.000000
vt 0.539720 0.750000
vt 0.625000 0.750000
vt 0.625000 1.000000
vt 0.539720 0.250000
vt 0.539720 0.226789
vt 0.469576 0.654474
vt 0.375000 0.654474
vt 0.125000 0.095526
vt 0.375000 0.095526
vt 0.469576 0.095526
vt 0.539720 0.095526
vt 0.625000 0.095526
vt 0.875000 0.095526
vt 0.625000 0.654474
vt 0.539720 0.654474
vt 0.125000 0.000000
vt 0.375000 0.000000
vt 0.469576 0.000000
vt 0.539720 0.000000
vt 0.625000 0.000000
vt 0.875000 0.000000
vt 0.375000 0.000000
vt 0.625000 0.000000
vt 0.625000 0.250000
vt 0.375000 0.250000
vt 0.625000 0.500000
vt 0.375000 0.500000
vt 0.625000 0.750000
vt 0.375000 0.750000
vt 0.625000 1.000000
vt 0.375000 1.000000
vt 0.875000 0.000000
vt 0.875000 0.250000
vt 0.125000 0.000000
vt 0.125000 0.250000
vn 0.000000 0.000000 1.000000
vn 0.000000 0.000000 1.000000
vn 0.000000 0.000000 1.000000
vn 0.000000 0.000000 1.000000
vn 0.000000 1.000000 0.000000
vn 0.000000 1.000000 0.000000
vn 0.000000 1.000000 0.000000
vn 0.000000 1.000000 0.000000
vn 0.000000 0.000000 -1.000000
vn 0.000000 0.000000 -1.000000
vn 0.000000 0.000000 -1.000000
vn 0.000000 0.000000 -1.000000
vn 0.000000 -1.000000 0.000000
vn 0.000000 -1.000000 0.000000
vn 0.000000 -1.000000 0.000000
vn 0.000000 -1.000000 0.000000
vn 1.000000 0.000000 0.000000
vn 1.000000 0.000000 0.000000
vn 1.000000 0.000000 0.000000
vn 1.000000 0.000000 0.000000
vn -1.000000 0.000000 0.000000
vn -1.000000 0.000000 0.000000
vn -1.000000 0.000000 0.000000
vn -1.000000 0.000000 0.000000
vn 1.000000 0.000000 0.000000
vn 1.000000 0.000000 0.000000
vn 1.000000 0.000000 0.000000
vn 1.000000 0.000000 0.000000
vn 0.000000 1.000000 0.000000
vn 0.000000 1.000000 0.000000
vn 0.000000 1.000000 0.000000
vn 0.000000 1.000000 0.000000
vn -1.000000 0.000000 0.000000
vn -1.000000 0.000000 0.000000
vn -1.000000 0.000000 0.000000
vn -1.000000 0.000000 0.000000
vn 0.000000 -1.000000 0.000000
vn 0.000000 -1.000000 0.000000
vn 0.000000 -1.000000 0.000000
vn 0.000000 -1.000000 0.000000
vn 0.000000 0.000000 -1.000000
vn 0.000000 0.000000 -1.000000
vn 0.000000 0.000000 -1.000000
vn 0.000000 0.000000 -1.000000
vn 0.000000 0.000000 1.000000
vn 0.000000 0.000000 1.000000
vn 0.000000 0.000000 1.000000
vn 0.000000 0.000000 1.000000
vn 0.000000 0.000000 1.000000
vn 0.000000 0.000000 1.000000
vn 0.000000 0.000000 1.000000
vn 0.000000 0.000000 1.000000
vn 0.000000 1.000000 0.000000
vn 0.000000 1.000000 0.000000
vn 0.000000 1.000000 0.000000
vn 0.000000 1.000000 0.000000
vn 0.000000 0.000000 -1.000000
vn 0.000000 0.000000 -1.000000
vn 0.000000 0.000000 -1.000000
vn 0.000000 0.000000 -1.000000
vn 0.000000 -1.000000 0.000000
vn 0.000000 -1.000000 0.000000
vn 0.000000 -1.000000 0.000000
vn 0.000000 -1.000000 0.000000
vn 1.000000 0.000000 0.000000
vn 1.000000 0.000000 0.000000
vn 1.000000 0.000000 0.000000
vn 1.000000 0.000000 0.000000
vn -1.000000 0.000000 0.000000
vn -1.000000 0.000000 0.000000
vn -1.000000 0.000000 0.000000
vn -1.000000 0.000000 0.000000
vn 0.000000 0.000000 -1.000000
vn 0.000000 0.000000 -1.000000
vn 0.000000 0.000000 -1.000000
vn 0.000000 0.000000 -1.000000
vn 0.000000 -1.000000 0.000000
vn 0.000000 -1.000000 0.000000
vn 0.000000 -1.000000 0.000000
vn 0.000000 -1.000000 0.000000
vn 0.000000 0.000000 1.000000
vn 0.000000 0.000000 1.000000
vn 0.000000 0.000000 1.000000
vn 0.000000 0.000000 1.000000
vn 0.000000 1.000000 0.000000
vn 0.000000 1.000000 0.000000
vn 0.000000 1.000000 0.000000
vn 0.000000 1.000000 0.000000
vn 0.000000 0.000000 -1.000000
vn 0.000000 0.000000 -1.000000
vn -1.000000 0.000000 0.000000
vn -1.000000 0.000000 0.000000
vn 0.000000 0.000000 1.000000
vn 0.000000 0.000000 1.000000
vn 0.000000 0.000000 1.000000
vn 0.000000 0.000000 1.000000
vn 1.000000 0.000000 0.000000
vn 1.000000 0.000000 0.000000
vn 0.000000 0.000000 -1.000000
vn 0.000000 0.000000 -1.000000
vn 0.000000 0.000000 -1.000000
vn 0.000000 0.000000 -1.000000
vn 0.000000 0.000000 -1.000000
vn -1.000000 0.000000 0.000000
vn -1.000000 0.000000 0.000000
vn 0.000000 0.000000 1.000000
vn 0.000000 0.000000 1.000000
vn 0.000000 0.000000 1.000000
vn 0.000000 0.000000 1.000000
vn 1.000000 0.000000 0.000000
vn 1.000000 0.000000 0.000000
vn 0.000000 0.000000 -1.000000
vn -1.000000 0.000000 0.000000
vn -1.000000 0.000000 0.000000
vn -1.000000 0.000000 0.000000
vn -1.000000 0.000000 0.000000
vn 0.000000 1.000000 0.000000
vn 0.000000 1.000000 0.000000
vn 0.000000 1.000000 0.000000
vn 0.000000 1.000000 0.000000
vn 1.000000 -0.000000 0.000000
vn 1.000000 -0.000000 0.000000
vn 1.000000 -0.000000 0.000000
vn 1.000000 -0.000000 0.000000
vn 0.000000 -1.000000 0.000000
vn 0.000000 -1.000000 0.000000
vn 0.000000 -1.000000 0.000000
vn 0.000000 -1.000000 0.000000
vn 0.000000 0.000000 1.000000
vn 0.000000 0.000000 1.000000
vn 0.000000 0.000000 1.000000
vn 0.000000 0.000000 1.000000
vn 0.000000 1.000000 0.000000
vn 0.000000 1.000000 0.000000
vn 0.000000 1.000000 0.000000
vn 0.000000 1.000000 0.000000
vn 0.000000 0.000000 -1.000000
vn 0.000000 0.000000 -1.000000
vn 0.000000 0.000000 -1.000000
vn 0.000000 0.000000 -1.000000
vn 0.000000 -1.000000 0.000000
vn 0.000000 -1.000000 0.000000
vn 0.000000 -1.000000 0.000000
vn 0.000000 -1.000000 0.000000
vn 1.000000 0.000000 0.000000
vn 1.000000 0.000000 0.000000
vn 1.000000 0.000000 0.000000
vn 1.000000 0.000000 0.000000
vn -1.000000 0.000000 0.000000
vn -1.000000 0.000000 0.000000
vn -1.000000 0.000000 0.000000
vn -1.000000 0.000000 0.000000
s off
g Room
usemtl initialShadingGroup
f 1/1/1 2/2/2 4/4/3 3/3/4
f 3/3/5 4/4/6 6/6/7 5/5/8
f 5/5/9 6/6/10 8/8/11 7/7/12
f 7/7/13 8/8/14 2/10/15 1/9/16
f 2/2/17 8/11/18 6/12/19 4/4/20
f 7/13/21 1/1/22 3/3/23 5/14/24
f 9/15/25 10/16/26 12/17/27 11/18/28
f 11/18/29 12/17/30 14/19/31 13/20/32
f 13/20/33 14/19/34 16/21/35 15/22/36
f 15/22/37 16/21/38 10/23/39 9/24/40
f 10/16/41 16/25/42 14/26/43 12/17/44
f 15/27/45 9/15/46 11/18/47 13/28/48
s 1
f 36/29/49 37/30/50 32/31/51 19/32/52
s 2
f 19/32/53 32/31/54 29/33/55 21/34/56
s 3
f 21/34/57 29/33/58 34/35/59 35/36/60
s 4
f 23/37/61 30/38/62 31/39/63 17/40/64
s 5
f 39/41/65 40/42/66 22/43/67 20/44/68
s 6
f 35/45/69 36/29/70 19/32/71 21/46/72
s 3
f 25/47/73 22/48/74 40/49/75 33/50/76
s 4
f 27/51/77 26/52/78 24/53/79 18/54/80
s 1
f 28/55/81 38/56/82 39/41/83 20/44/84
s 2
f 25/47/85 28/55/86 20/44/87 22/48/88
s 3
f 29/33/58 25/47/73 33/50/76 34/35/59
s 4
f 31/39/63 30/38/62 26/52/78 27/51/77
s 1
f 32/31/51 37/30/50 38/56/82 28/55/81
s 2
f 29/33/55 32/31/54 28/55/86 25/47/85
s 3
f 35/36/60 34/35/59 42/57/89 43/58/90
s 6
f 43/59/91 44/60/92 36/29/70 35/45/69
s 1
f 44/60/93 45/61/94 37/30/50 36/29/49
f 39/41/83 38/56/82 46/62/95 47/63/96
s 5
f 47/63/97 48/64/98 40/42/66 39/41/65
s 3
f 33/50/76 40/49/75 48/65/99 41/66/100
f 42/57/89 41/66/100 26/52/101 30/38/102
f 43/58/90 42/57/89 30/38/102 23/37/103
s 6
f 23/67/104 17/68/105 44/60/92 43/59/91
s 1
f 17/68/106 31/69/107 45/61/94 44/60/93
f 46/62/95 45/61/94 31/69/107 27/70/108
f 47/63/96 46/62/95 27/70/108 18/71/109
s 5
f 18/71/110 24/72/111 48/64/98 47/63/97
s 3
f 41/66/100 48/65/99 24/53/112 26/52/101
s off
f 33/50/113 41/66/114 46/62/115 38/56/116
f 41/66/117 42/57/118 45/61/119 46/62/120
f 42/57/121 34/35/122 37/30/123 45/61/124
f 34/35/125 33/50/126 38/56/127 37/30/128
f 49/73/129 50/74/130 52/75/131 51/76/132
f 51/76/133 52/75/134 54/77/135 53/78/136
f 53/78/137 54/77/138 56/79/139 55/80/140
f 55/80/141 56/79/142 50/81/143 49/82/144
f 50/74/145 56/83/146 54/84/147 52/75/148
f 55/85/149 49/73/150 51/76/151 53/86/152
