# This file uses centimeters as units for non-parametric coordinates.

mtllib Window_Frame.mtl
g default
v -18.672229 26.926023 71.654799
v 23.890771 26.926023 71.654799
v -18.672229 29.514098 71.654799
v 23.890771 29.514098 71.654799
v -18.672229 29.514098 69.066724
v 23.890771 29.514098 69.066724
v -18.672229 26.926023 69.066724
v 23.890771 26.926023 69.066724
v 21.178175 29.514098 69.066724
v 21.178175 26.926023 69.066724
v 21.178175 26.926023 71.654799
v 21.178175 29.514098 71.654799
v -16.114088 29.514098 69.066724
v -16.114088 26.926023 69.066724
v -16.114088 26.926023 71.654799
v -16.114088 29.514098 71.654799
v -18.672229 67.269273 71.654799
v -16.114088 67.269273 71.654799
v -16.114088 67.269273 69.066724
v -18.672229 67.269273 69.066724
v 21.178175 67.269273 71.654799
v 21.178175 67.269273 69.066724
v 23.890771 67.269273 71.654799
v 23.890771 67.269273 69.066724
v 23.890771 64.611319 69.066724
v 23.890771 64.611319 71.654799
v 21.178175 64.611319 71.654799
v 21.178175 64.611319 69.066724
v -16.114088 64.501618 69.066724
v -16.114088 64.501618 71.654799
v -18.672229 64.501618 71.654799
v -18.672229 64.501618 69.066724
v 4.329394 67.269273 69.066724
v 4.329394 64.561758 69.066724
v 4.329394 64.561758 71.654799
v 4.329394 67.269273 71.654799
v 1.295606 67.269273 71.654799
v 1.295606 67.269273 69.066724
v 1.295606 64.552828 69.066724
v 1.295606 64.552828 71.654799
v 4.723205 29.514098 69.066724
v 4.723205 26.926023 69.066724
v 4.723205 26.926023 71.654799
v 4.723205 29.514098 71.654799
v 1.549746 29.514108 69.066724
v 1.549746 26.926023 69.066724
v 1.549746 26.926023 71.654799
v 1.549746 29.514108 71.654799
v 23.890771 49.428571 69.066724
v 23.890771 49.428571 71.654799
v 21.178175 49.428571 71.654799
v 21.178175 49.428571 69.066724
v 23.890771 46.330856 69.066724
v 23.890771 46.330856 71.654799
v 21.178175 46.330856 71.654799
v 21.178175 46.330856 69.066724
v -16.114088 49.218519 69.066724
v -16.114088 49.218519 71.654799
v -18.672229 49.218519 71.654799
v -18.672229 49.218519 69.066724
v -16.114088 46.347931 69.066724
v -16.114088 46.347931 71.654799
v -18.672229 46.347931 71.654799
v -18.672229 46.347931 69.066724
v 4.283675 49.333413 69.066724
v 4.283675 49.333413 71.654799
v 4.283675 46.338591 71.654799
v 4.283675 46.338591 69.066724
v 1.293189 49.316565 69.066724
v 1.293189 49.316565 71.654799
v 1.293189 46.339959 71.654799
v 1.293189 46.339959 69.066724
vt 0.375000 0.000000
vt 0.625000 0.000000
vt 0.375000 0.250000
vt 0.625000 0.250000
vt 0.375000 0.500000
vt 0.625000 0.500000
vt 0.375000 0.750000
vt 0.625000 0.750000
vt 0.375000 1.000000
vt 0.625000 1.000000
vt 0.875000 0.000000
vt 0.875000 0.250000
vt 0.125000 0.000000
vt 0.125000 0.250000
vt 0.609067 0.500000
vt 0.609067 0.750000
vt 0.609067 0.000000
vt 0.609067 1.000000
vt 0.609067 0.250000
vt 0.390026 0.500000
vt 0.390026 0.750000
vt 0.390026 0.000000
vt 0.390026 1.000000
vt 0.390026 0.250000
vt 0.375000 0.250000
vt 0.390026 0.250000
vt 0.390026 0.500000
vt 0.375000 0.500000
vt 0.609067 0.500000
vt 0.609067 0.250000
vt 0.625000 0.250000
vt 0.625000 0.500000
vt 0.625000 0.500000
vt 0.625000 0.250000
vt 0.609067 0.250000
vt 0.609067 0.500000
vt 0.390026 0.500000
vt 0.390026 0.250000
vt 0.375000 0.250000
vt 0.375000 0.500000
vt 0.510103 0.500000
vt 0.510103 0.500000
vt 0.510103 0.250000
vt 0.510103 0.250000
vt 0.492284 0.250000
vt 0.492284 0.500000
vt 0.492284 0.500000
vt 0.492284 0.250000
vt 0.512416 0.500000
vt 0.512416 0.750000
vt 0.512416 0.000000
vt 0.512416 1.000000
vt 0.512416 0.250000
vt 0.493777 0.500000
vt 0.493777 0.750000
vt 0.493777 0.000000
vt 0.493777 1.000000
vt 0.493777 0.250000
vt 0.625000 0.500000
vt 0.625000 0.250000
vt 0.609067 0.250000
vt 0.609067 0.500000
vt 0.625000 0.500000
vt 0.625000 0.250000
vt 0.609067 0.250000
vt 0.609067 0.500000
vt 0.390026 0.500000
vt 0.390026 0.250000
vt 0.375000 0.250000
vt 0.375000 0.500000
vt 0.390026 0.500000
vt 0.390026 0.250000
vt 0.375000 0.250000
vt 0.375000 0.500000
vt 0.509835 0.500000
vt 0.509835 0.250000
vt 0.509835 0.250000
vt 0.509835 0.500000
vt 0.492270 0.500000
vt 0.492270 0.250000
vt 0.492270 0.250000
vt 0.492270 0.500000
vn 0.000000 0.000000 1.000000
vn 0.000000 0.000000 1.000000
vn 0.000000 0.000000 1.000000
vn 0.000000 0.000000 1.000000
vn 0.000000 1.000000 0.000000
vn 0.000000 1.000000 0.000000
vn 0.000000 1.000000 0.000000
vn 0.000000 1.000000 0.000000
vn 0.000000 0.000000 -1.000000
vn 0.000000 0.000000 -1.000000
vn 0.000000 0.000000 -1.000000
vn 0.000000 0.000000 -1.000000
vn 0.000000 -1.000000 0.000000
vn 0.000000 -1.000000 0.000000
vn 0.000000 -1.000000 0.000000
vn 0.000000 -1.000000 0.000000
vn 1.000000 0.000000 0.000000
vn 1.000000 0.000000 0.000000
vn 1.000000 0.000000 0.000000
vn 1.000000 0.000000 0.000000
vn -1.000000 0.000000 0.000000
vn -1.000000 0.000000 0.000000
vn -1.000000 0.000000 0.000000
vn -1.000000 0.000000 0.000000
vn 0.000000 0.000000 -1.000000
vn 0.000000 0.000000 -1.000000
vn 0.000000 0.000000 -1.000000
vn 0.000000 0.000000 -1.000000
vn 0.000000 -1.000000 0.000000
vn 0.000000 -1.000000 0.000000
vn 0.000000 -1.000000 0.000000
vn 0.000000 -1.000000 0.000000
vn 0.000000 0.000000 1.000000
vn 0.000000 0.000000 1.000000
vn 0.000000 0.000000 1.000000
vn 0.000000 0.000000 1.000000
vn 0.000000 1.000000 0.000000
vn 0.000000 1.000000 0.000000
vn 0.000000 1.000000 0.000000
vn 0.000000 1.000000 0.000000
vn 0.000000 0.000000 -1.000000
vn 0.000000 0.000000 -1.000000
vn 0.000000 -1.000000 0.000000
vn 0.000000 -1.000000 0.000000
vn 0.000000 0.000000 1.000000
vn 0.000000 0.000000 1.000000
vn -0.000001 1.000000 0.000000
vn -0.000001 1.000000 0.000000
vn -0.000001 1.000000 0.000000
vn -0.000001 1.000000 0.000000
vn 0.000000 0.000000 1.000000
vn 0.000000 0.000000 1.000000
vn 1.000000 0.000000 0.000000
vn 1.000000 0.000000 0.000000
vn 1.000000 0.000000 0.000000
vn 1.000000 0.000000 0.000000
vn 0.000000 0.000000 -1.000000
vn 0.000000 0.000000 -1.000000
vn -1.000000 0.000000 0.000000
vn -1.000000 0.000000 0.000000
vn -1.000000 0.000000 0.000000
vn -1.000000 0.000000 0.000000
vn -1.000000 0.000000 0.000000
vn -1.000000 0.000000 0.000000
vn 0.000000 0.000000 1.000000
vn 0.000000 0.000000 1.000000
vn 1.000000 0.000000 0.000000
vn 1.000000 0.000000 0.000000
vn 0.000000 0.000000 -1.000000
vn 0.000000 0.000000 -1.000000
vn 1.000000 0.000000 0.000000
vn 1.000000 0.000000 0.000000
vn 1.000000 0.000000 0.000000
vn 1.000000 0.000000 0.000000
vn 0.000000 0.000000 1.000000
vn 0.000000 0.000000 1.000000
vn 0.000000 0.000000 1.000000
vn 0.000000 0.000000 1.000000
vn 0.000000 0.000000 -1.000000
vn 0.000000 0.000000 -1.000000
vn 0.000000 0.000000 -1.000000
vn 0.000000 0.000000 -1.000000
vn 0.000000 0.000000 1.000000
vn 0.000000 0.000000 1.000000
vn 0.000000 0.000000 1.000000
vn 0.000000 0.000000 1.000000
vn -1.000000 0.000000 0.000000
vn -1.000000 0.000000 0.000000
vn -1.000000 0.000000 0.000000
vn -1.000000 0.000000 0.000000
vn 0.000000 0.000000 -1.000000
vn 0.000000 0.000000 -1.000000
vn 0.000000 0.000000 -1.000000
vn 0.000000 0.000000 -1.000000
vn 0.000000 1.000000 0.000000
vn 0.000000 1.000000 0.000000
vn 0.000000 1.000000 0.000000
vn 0.000000 1.000000 0.000000
vn 0.000000 0.000000 1.000000
vn 0.000000 0.000000 1.000000
vn 0.000000 0.000000 1.000000
vn 0.000000 0.000000 1.000000
vn 0.002941 -0.999996 0.000000
vn 0.002941 -0.999996 0.000000
vn 0.002941 -0.999996 0.000000
vn 0.002941 -0.999996 0.000000
vn 0.000000 0.000000 -1.000000
vn 0.000000 0.000000 -1.000000
vn 0.000000 0.000000 -1.000000
vn 0.000000 0.000000 -1.000000
vn 0.000000 0.000000 -1.000000
vn 0.000000 0.000000 -1.000000
vn 0.000000 0.000000 -1.000000
vn 0.000000 0.000000 -1.000000
vn 0.002942 -0.999996 0.000000
vn 0.002942 -0.999996 0.000000
vn 0.002942 -0.999996 0.000000
vn 0.002942 -0.999996 0.000000
vn 0.000000 0.000000 1.000000
vn 0.000000 0.000000 1.000000
vn 0.000000 0.000000 1.000000
vn 0.000000 0.000000 1.000000
vn 0.000000 1.000000 0.000000
vn 0.000000 1.000000 0.000000
vn 0.000000 1.000000 0.000000
vn 0.000000 1.000000 0.000000
vn 0.000000 0.000000 -1.000000
vn 0.000000 0.000000 -1.000000
vn 0.000000 -1.000000 0.000000
vn 0.000000 -1.000000 0.000000
vn 0.000000 0.000000 1.000000
vn 0.000000 0.000000 1.000000
vn 0.000000 1.000000 0.000000
vn 0.000000 1.000000 0.000000
vn 0.000000 1.000000 0.000000
vn 0.000000 1.000000 0.000000
vn 1.000000 0.000000 0.000000
vn 1.000000 0.000000 0.000000
vn 0.000000 0.000000 1.000000
vn 0.000000 0.000000 1.000000
vn -1.000000 0.000000 0.000000
vn -1.000000 0.000000 0.000000
vn -1.000000 0.000000 0.000000
vn -1.000000 0.000000 0.000000
vn 0.000000 0.000000 -1.000000
vn 0.000000 0.000000 -1.000000
vn 1.000000 0.000000 0.000000
vn 1.000000 0.000000 0.000000
vn 1.000000 0.000000 0.000000
vn 1.000000 0.000000 0.000000
vn 0.000000 0.000000 1.000000
vn 0.000000 0.000000 1.000000
vn -1.000000 0.000000 0.000000
vn -1.000000 0.000000 0.000000
vn 0.000000 0.000000 -1.000000
vn 0.000000 0.000000 -1.000000
vn 0.000000 0.000000 1.000000
vn 0.000000 0.000000 1.000000
vn 0.000000 0.000000 1.000000
vn 0.000000 0.000000 1.000000
vn -0.005632 0.999984 0.000000
vn -0.005632 0.999984 0.000000
vn -0.005632 0.999984 0.000000
vn -0.005632 0.999984 0.000000
vn -0.000458 -1.000000 0.000000
vn -0.000458 -1.000000 0.000000
vn -0.000458 -1.000000 0.000000
vn -0.000458 -1.000000 0.000000
vn 0.000000 0.000000 -1.000000
vn 0.000000 0.000000 -1.000000
vn 0.000000 0.000000 -1.000000
vn 0.000000 0.000000 -1.000000
vn 0.000000 0.000000 1.000000
vn 0.000000 0.000000 1.000000
vn 0.000000 0.000000 -1.000000
vn 0.000000 0.000000 -1.000000
vn -0.005632 0.999984 0.000000
vn -0.005632 0.999984 0.000000
vn -0.005632 0.999984 0.000000
vn -0.005632 0.999984 0.000000
vn 0.000000 0.000000 1.000000
vn 0.000000 0.000000 1.000000
vn -0.000458 -1.000000 0.000000
vn -0.000458 -1.000000 0.000000
vn -0.000458 -1.000000 0.000000
vn -0.000458 -1.000000 0.000000
vn 0.000000 0.000000 -1.000000
vn 0.000000 0.000000 -1.000000
vn 0.000000 0.000000 1.000000
vn 0.000000 0.000000 1.000000
vn 0.000000 0.000000 1.000000
vn 0.000000 0.000000 1.000000
vn -1.000000 0.000159 0.000000
vn -1.000000 0.000159 0.000000
vn -1.000000 0.000159 0.000000
vn -1.000000 0.000159 0.000000
vn 0.000000 0.000000 -1.000000
vn 0.000000 0.000000 -1.000000
vn 0.000000 0.000000 -1.000000
vn 0.000000 0.000000 -1.000000
vn 0.999996 -0.003002 0.000000
vn 0.999996 -0.003002 0.000000
vn 0.999996 -0.003002 0.000000
vn 0.999996 -0.003002 0.000000
vn 0.000000 0.000000 -1.000000
vn 0.000000 0.000000 -1.000000
vn 0.000000 0.000000 -1.000000
vn 0.000000 0.000000 -1.000000
vn -0.999884 -0.015246 0.000000
vn -0.999884 -0.015246 0.000000
vn -0.999884 -0.015246 0.000000
vn -0.999884 -0.015246 0.000000
vn 0.000000 0.000000 1.000000
vn 0.000000 0.000000 1.000000
vn 0.000000 0.000000 1.000000
vn 0.000000 0.000000 1.000000
vn 0.999659 0.026115 0.000000
vn 0.999659 0.026115 0.000000
vn 0.999659 0.026115 0.000000
vn 0.999659 0.026115 0.000000
s 1
g Window_Frame
usemtl initialShadingGroup
f 1/1/1 15/22/2 16/24/3 3/3/4
s off
f 17/25/5 18/26/6 19/27/7 20/28/8
s 2
f 5/5/9 13/20/10 14/21/11 7/7/12
s 3
f 7/7/13 14/21/14 15/23/15 1/9/16
s 4
f 2/2/17 8/11/18 6/12/19 4/4/20
s 5
f 7/13/21 1/1/22 3/3/23 5/14/24
s 2
f 9/15/25 6/6/26 8/8/27 10/16/28
s 3
f 11/18/29 10/16/30 8/8/31 2/10/32
s 1
f 12/19/33 11/17/34 2/2/35 4/4/36
s off
f 22/29/37 21/30/38 23/31/39 24/32/40
s 2
f 13/20/10 45/54/41 46/55/42 14/21/11
s 3
f 15/23/15 14/21/14 46/55/43 47/57/44
s 1
f 16/24/3 15/22/2 47/56/45 48/58/46
s off
f 13/20/47 16/24/48 48/58/49 45/54/50
s 1
f 3/3/4 16/24/3 62/72/51 63/73/52
s off
f 16/24/53 13/20/54 61/71/55 62/72/56
s 2
f 13/20/10 5/5/9 64/74/57 61/71/58
s 5
f 5/5/24 3/3/23 63/73/59 64/74/60
s off
f 9/15/61 12/19/62 55/65/63 56/66/64
s 1
f 12/19/33 4/4/36 54/64/65 55/65/66
s 4
f 4/4/20 6/6/19 53/63/67 54/64/68
s 2
f 6/6/26 9/15/25 56/66/69 53/63/70
s 4
f 26/34/71 25/33/72 24/32/73 23/31/74
s 1
f 27/35/75 26/34/76 23/31/77 21/30/78
s 2
f 25/33/79 28/36/80 22/29/81 24/32/82
s 1
f 31/39/83 30/38/84 18/26/85 17/25/86
s 5
f 32/40/87 31/39/88 17/25/89 20/28/90
s 2
f 29/37/91 32/40/92 20/28/93 19/27/94
s 15
f 19/27/95 18/26/96 37/45/97 38/46/98
s 16
f 18/26/99 30/38/100 40/48/101 37/45/102
s off
f 30/38/103 29/37/104 39/47/105 40/48/106
s 17
f 29/37/107 19/27/108 38/46/109 39/47/110
f 34/42/111 33/41/112 22/29/113 28/36/114
s off
f 35/43/115 34/42/116 28/36/117 27/35/118
s 16
f 36/44/119 35/43/120 27/35/121 21/30/122
s 15
f 33/41/123 36/44/124 21/30/125 22/29/126
f 38/46/98 37/45/97 36/44/124 33/41/123
s 17
f 39/47/110 38/46/109 33/41/112 34/42/111
s 16
f 37/45/102 40/48/101 35/43/120 36/44/119
s 2
f 41/49/127 9/15/25 10/16/28 42/50/128
s 3
f 43/52/129 42/50/130 10/16/30 11/18/29
s 1
f 44/53/131 43/51/132 11/17/34 12/19/33
s off
f 41/49/133 44/53/134 12/19/135 9/15/136
s 2
f 45/54/41 41/49/127 42/50/128 46/55/42
s 3
f 47/57/44 46/55/43 42/50/130 43/52/129
s 1
f 48/58/46 47/56/45 43/51/132 44/53/131
s 4
f 50/60/137 49/59/138 25/33/72 26/34/71
s 1
f 51/61/139 50/60/140 26/34/76 27/35/75
s off
f 52/62/141 51/61/142 27/35/143 28/36/144
s 2
f 49/59/145 52/62/146 28/36/80 25/33/79
s 4
f 54/64/68 53/63/67 49/59/138 50/60/137
s 1
f 55/65/66 54/64/65 50/60/140 51/61/139
s 2
f 53/63/70 56/66/69 52/62/146 49/59/145
s off
f 58/68/147 57/67/148 29/37/149 30/38/150
s 1
f 59/69/151 58/68/152 30/38/84 31/39/83
s 5
f 60/70/153 59/69/154 31/39/88 32/40/87
s 2
f 57/67/155 60/70/156 32/40/92 29/37/91
s 1
f 63/73/52 62/72/51 58/68/152 59/69/151
s 5
f 64/74/60 63/73/59 59/69/154 60/70/153
s 2
f 61/71/58 64/74/57 60/70/156 57/67/155
s 18
f 55/65/157 51/61/158 66/76/159 67/77/160
s off
f 51/61/161 52/62/162 65/75/163 66/76/164
f 56/66/165 55/65/166 67/77/167 68/78/168
s 19
f 52/62/169 56/66/170 68/78/171 65/75/172
s 18
f 67/77/160 66/76/159 70/80/173 71/81/174
s 19
f 65/75/172 68/78/171 72/82/175 69/79/176
s off
f 70/80/177 69/79/178 57/67/179 58/68/180
s 18
f 71/81/174 70/80/173 58/68/181 62/72/182
s off
f 72/82/183 71/81/184 62/72/185 61/71/186
s 19
f 69/79/176 72/82/175 61/71/187 57/67/188
s off
f 35/43/189 40/48/190 70/80/191 66/76/192
f 40/48/193 39/47/194 69/79/195 70/80/196
f 39/47/197 34/42/198 65/75/199 69/79/200
f 34/42/201 35/43/202 66/76/203 65/75/204
f 41/49/205 45/54/206 72/82/207 68/78/208
f 45/54/209 48/58/210 71/81/211 72/82/212
f 48/58/213 44/53/214 67/77/215 71/81/216
f 44/53/217 41/49/218 68/78/219 67/77/220
